<?xml version="1.0" encoding="UTF-8" standalone="no"?>
<!DOCTYPE svg PUBLIC "-//W3C//DTD SVG 1.1//EN" "http://www.w3.org/Graphics/SVG/1.1/DTD/svg11.dtd">
<svg width="100%" height="100%" viewBox="0 0 332 80" version="1.1" xmlns="http://www.w3.org/2000/svg" xmlns:xlink="http://www.w3.org/1999/xlink" xml:space="preserve" xmlns:serif="http://www.serif.com/" style="fill-rule:evenodd;clip-rule:evenodd;stroke-linejoin:round;stroke-miterlimit:2;">
    <g transform="matrix(1,0,0,1,-128.611037,-154.44232)">
        <g transform="matrix(0.686554,0,0,1.979195,41.285821,-125.319702)">
            <path d="M140.123,163.405L140.123,167.66C141.19,167.23 142.38,166.909 143.692,166.698C145.004,166.486 146.428,166.381 147.964,166.381C149.735,166.381 151.271,166.477 152.573,166.669C153.874,166.862 154.867,167.132 155.549,167.48C156.232,167.827 156.643,168.168 156.781,168.501C156.92,168.834 156.989,169.545 156.989,170.633L156.989,177.271C156.989,178.352 156.781,179.157 156.365,179.686C155.949,180.215 154.973,180.674 153.437,181.063C151.901,181.451 150.077,181.646 147.964,181.646C146.449,181.646 145.036,181.531 143.724,181.301C142.412,181.071 141.211,180.726 140.123,180.266L139.291,181.379L127.193,181.379L127.193,163.405L140.123,163.405ZM144.06,170.832C144.06,170.07 143.921,169.572 143.644,169.339C143.366,169.106 142.822,168.989 142.011,168.989C141.222,168.989 140.71,169.091 140.475,169.295C140.241,169.498 140.123,170.011 140.123,170.832L140.123,177.183C140.123,177.975 140.257,178.482 140.523,178.704C140.79,178.926 141.318,179.037 142.107,179.037C142.918,179.037 143.446,178.922 143.692,178.692C143.937,178.463 144.06,177.912 144.06,177.038L144.06,170.832Z" style="fill:rgb(255,213,114);fill-rule:nonzero;"/>
            <path d="M190.85,166.647L190.85,181.379L177.696,181.379L177.92,180.155C177.024,180.652 175.92,181.025 174.608,181.273C173.296,181.521 171.786,181.646 170.079,181.646C168.138,181.646 166.527,181.527 165.247,181.29C163.966,181.053 163.022,180.739 162.414,180.347C161.806,179.954 161.427,179.545 161.278,179.12C161.129,178.694 161.054,177.849 161.054,176.583L161.054,166.647L173.984,166.647L173.984,176.672C173.984,177.819 174.085,178.5 174.288,178.715C174.49,178.929 175.04,179.037 175.936,179.037C176.896,179.037 177.467,178.926 177.648,178.704C177.83,178.482 177.92,177.767 177.92,176.561L177.92,166.647L190.85,166.647Z" style="fill:rgb(255,213,114);fill-rule:nonzero;"/>
            <path d="M221.894,171.354L210.437,171.354L210.437,170.555C210.437,169.874 210.325,169.443 210.101,169.261C209.877,169.08 209.316,168.989 208.42,168.989C207.695,168.989 207.151,169.073 206.788,169.239C206.425,169.406 206.244,169.656 206.244,169.989C206.244,170.44 206.335,170.771 206.516,170.982C206.697,171.193 207.241,171.424 208.148,171.676C209.055,171.928 210.917,172.294 213.733,172.775C217.488,173.412 219.953,174.011 221.126,174.574C222.299,175.136 222.886,175.954 222.886,177.027C222.886,178.226 222.438,179.131 221.542,179.742C220.646,180.352 219.147,180.822 217.045,181.152C214.944,181.481 212.41,181.646 209.444,181.646C206.159,181.646 203.348,181.468 201.011,181.113C198.675,180.757 197.069,180.276 196.195,179.669C195.32,179.063 194.883,178.145 194.883,176.916L194.883,176.206L206.34,176.206L206.34,177.138C206.34,177.93 206.484,178.445 206.772,178.681C207.06,178.918 207.631,179.037 208.484,179.037C209.402,179.037 210.042,178.957 210.405,178.798C210.767,178.639 210.949,178.304 210.949,177.793C210.949,177.09 210.714,176.65 210.245,176.472C209.754,176.294 207.247,175.769 202.724,174.896C198.926,174.156 196.611,173.484 195.779,172.881C194.947,172.277 194.53,171.561 194.53,170.732C194.53,169.556 194.979,168.688 195.875,168.129C196.771,167.57 198.291,167.139 200.435,166.836C202.58,166.532 205.071,166.381 207.908,166.381C210.725,166.381 213.12,166.505 215.093,166.752C217.067,167 218.582,167.328 219.638,167.735C220.694,168.142 221.334,168.519 221.558,168.867C221.782,169.215 221.894,169.759 221.894,170.499L221.894,171.354Z" style="fill:rgb(255,213,114);fill-rule:nonzero;"/>
            <path d="M254.923,172.209L242.729,172.209L242.729,170.51C242.729,169.918 242.59,169.517 242.313,169.306C242.035,169.095 241.523,168.989 240.777,168.989C240.03,168.989 239.528,169.082 239.272,169.267C239.016,169.452 238.888,169.867 238.888,170.51L238.888,177.46C238.888,177.986 239.08,178.38 239.464,178.642C239.848,178.905 240.414,179.037 241.161,179.037C242.035,179.037 242.628,178.9 242.937,178.626C243.246,178.352 243.401,177.834 243.401,177.072L243.401,175.318L254.923,175.318C254.901,176.494 254.778,177.377 254.554,177.965C254.33,178.554 253.616,179.157 252.41,179.775C251.205,180.393 249.631,180.859 247.69,181.174C245.748,181.488 243.348,181.646 240.489,181.646C236.84,181.646 233.949,181.429 231.815,180.996C229.682,180.563 228.172,179.956 227.287,179.175C226.401,178.395 225.959,177.286 225.959,175.85L225.959,171.665C225.959,170.414 226.321,169.471 227.047,168.834C227.772,168.198 229.319,167.629 231.687,167.13C234.056,166.63 236.936,166.381 240.329,166.381C243.7,166.381 246.58,166.628 248.97,167.124C251.359,167.62 252.949,168.246 253.738,169.001C254.528,169.755 254.923,170.825 254.923,172.209Z" style="fill:rgb(255,213,114);fill-rule:nonzero;"/>
            <path d="M270.317,172.353L258.187,172.353L258.187,171.365C258.187,170.225 258.566,169.347 259.323,168.729C260.081,168.111 261.601,167.565 263.884,167.091C266.167,166.617 269.132,166.381 272.781,166.381C277.155,166.381 280.451,166.649 282.67,167.185C284.889,167.722 286.223,168.381 286.671,169.162C287.119,169.942 287.343,171.55 287.343,173.985L287.343,181.379L274.765,181.379L274.765,180.066C273.976,180.593 272.957,180.988 271.709,181.251C270.461,181.514 268.972,181.646 267.244,181.646C264.983,181.646 262.908,181.425 261.019,180.985C259.131,180.545 258.187,179.581 258.187,178.093L258.187,176.883C258.187,175.78 258.688,175.029 259.691,174.629C260.694,174.23 263.18,173.763 267.148,173.23C271.394,172.653 273.666,172.265 273.965,172.065C274.264,171.865 274.413,171.458 274.413,170.843C274.413,170.074 274.248,169.572 273.917,169.339C273.586,169.106 273.037,168.989 272.269,168.989C271.394,168.989 270.85,169.088 270.637,169.284C270.423,169.48 270.317,169.989 270.317,170.81L270.317,172.353ZM274.413,174.374C272.343,174.899 271.143,175.34 270.813,175.695C270.482,176.05 270.317,176.561 270.317,177.227C270.317,177.989 270.461,178.482 270.749,178.704C271.037,178.926 271.607,179.037 272.461,179.037C273.272,179.037 273.8,178.95 274.045,178.776C274.29,178.602 274.413,178.145 274.413,177.405L274.413,174.374Z" style="fill:rgb(255,213,114);fill-rule:nonzero;"/>
            <path d="M321.203,163.405L321.203,181.379L308.274,181.379L308.274,180.311C307.036,180.756 305.735,181.089 304.369,181.312C303.004,181.534 301.574,181.646 300.081,181.646C298.075,181.646 296.336,181.462 294.864,181.096C293.392,180.73 292.448,180.306 292.031,179.825C291.615,179.344 291.407,178.559 291.407,177.471L291.407,170.577C291.407,169.445 291.615,168.642 292.031,168.168C292.448,167.694 293.402,167.278 294.896,166.919C296.389,166.56 298.171,166.381 300.241,166.381C301.841,166.381 303.308,166.481 304.641,166.681C305.975,166.881 307.185,167.182 308.274,167.582L308.274,163.405L321.203,163.405ZM308.274,170.355C308.274,169.815 308.14,169.452 307.874,169.267C307.607,169.082 307.079,168.989 306.289,168.989C305.521,168.989 305.004,169.073 304.737,169.239C304.47,169.406 304.337,169.778 304.337,170.355L304.337,177.571C304.337,178.171 304.465,178.565 304.721,178.754C304.977,178.942 305.468,179.037 306.193,179.037C307.025,179.037 307.58,178.931 307.858,178.72C308.135,178.509 308.274,177.993 308.274,177.172L308.274,170.355Z" style="fill:rgb(255,213,114);fill-rule:nonzero;"/>
            <path d="M355.096,171.82L355.096,175.429C355.096,176.753 354.904,177.725 354.52,178.343C354.136,178.961 353.314,179.538 352.055,180.075C350.797,180.611 349.18,181.007 347.207,181.263C345.233,181.518 342.966,181.646 340.406,181.646C337.547,181.646 335.125,181.536 333.141,181.318C331.157,181.1 329.615,180.77 328.516,180.33C327.417,179.89 326.633,179.357 326.164,178.731C325.695,178.106 325.46,177.168 325.46,175.917L325.46,172.142C325.46,170.773 325.887,169.704 326.74,168.934C327.594,168.164 329.13,167.546 331.349,167.08C333.568,166.614 336.405,166.381 339.862,166.381C342.764,166.381 345.255,166.53 347.335,166.83C349.415,167.13 351.021,167.52 352.151,168.001C353.282,168.482 354.056,168.978 354.472,169.489C354.888,170 355.096,170.777 355.096,171.82ZM342.166,170.71C342.166,169.955 342.049,169.48 341.814,169.284C341.579,169.088 341.078,168.989 340.31,168.989C339.542,168.989 339.03,169.088 338.774,169.284C338.518,169.48 338.39,169.955 338.39,170.71L338.39,177.36C338.39,178.056 338.518,178.509 338.774,178.72C339.03,178.931 339.531,179.037 340.278,179.037C341.046,179.037 341.553,178.94 341.798,178.748C342.043,178.556 342.166,178.141 342.166,177.505L342.166,170.71Z" style="fill:rgb(255,213,114);fill-rule:nonzero;"/>
            <path d="M372.282,166.647L371.77,168.584C373.648,167.197 376.368,166.462 379.931,166.381L379.931,171.565C377.563,171.565 375.824,171.676 374.714,171.898C373.605,172.12 372.922,172.429 372.666,172.825C372.41,173.221 372.282,174.133 372.282,175.562L372.282,181.379L359.352,181.379L359.352,166.647L372.282,166.647Z" style="fill:rgb(255,213,114);fill-rule:nonzero;"/>
            <path d="M423.297,168.845L410.783,168.845L410.783,167.513C410.783,166.891 410.623,166.495 410.303,166.325C409.983,166.155 409.45,166.07 408.703,166.07C407.892,166.07 407.279,166.185 406.863,166.414C406.447,166.644 406.239,166.992 406.239,167.458C406.239,168.058 406.473,168.51 406.943,168.814C407.391,169.118 408.66,169.484 410.751,169.913C416.747,171.148 420.523,172.161 422.081,172.953C423.638,173.745 424.417,175.021 424.417,176.783C424.417,178.063 423.985,179.007 423.121,179.614C422.257,180.221 420.587,180.73 418.112,181.14C415.637,181.551 412.757,181.757 409.471,181.757C405.865,181.757 402.788,181.52 400.238,181.046C397.688,180.572 396.019,179.969 395.229,179.236C394.44,178.504 394.045,177.464 394.045,176.117L394.045,174.94L406.559,174.94L406.559,177.127C406.559,177.801 406.735,178.234 407.087,178.426C407.439,178.618 408.063,178.715 408.959,178.715C409.855,178.715 410.522,178.593 410.959,178.348C411.397,178.104 411.615,177.741 411.615,177.26C411.615,176.202 411.199,175.51 410.367,175.184C409.514,174.859 407.412,174.315 404.062,173.552C400.713,172.783 398.494,172.224 397.405,171.876C396.317,171.528 395.416,171.047 394.701,170.433C393.986,169.818 393.629,169.034 393.629,168.079C393.629,166.702 394.136,165.696 395.149,165.059C396.163,164.423 397.8,163.925 400.062,163.566C402.323,163.207 405.054,163.028 408.255,163.028C411.754,163.028 414.736,163.224 417.2,163.616C419.664,164.008 421.297,164.502 422.097,165.098C422.897,165.694 423.297,166.706 423.297,168.135L423.297,168.845Z" style="fill:rgb(255,213,114);fill-rule:nonzero;"/>
            <rect x="428.642" y="163.405" width="13.474" height="17.974" style="fill:rgb(255,213,114);fill-rule:nonzero;"/>
            <path d="M476.072,168.845L463.558,168.845L463.558,167.513C463.558,166.891 463.398,166.495 463.078,166.325C462.758,166.155 462.225,166.07 461.478,166.07C460.667,166.07 460.054,166.185 459.638,166.414C459.222,166.644 459.014,166.992 459.014,167.458C459.014,168.058 459.248,168.51 459.718,168.814C460.166,169.118 461.435,169.484 463.526,169.913C469.522,171.148 473.298,172.161 474.856,172.953C476.413,173.745 477.192,175.021 477.192,176.783C477.192,178.063 476.76,179.007 475.896,179.614C475.032,180.221 473.362,180.73 470.887,181.14C468.412,181.551 465.532,181.757 462.246,181.757C458.64,181.757 455.563,181.52 453.013,181.046C450.463,180.572 448.794,179.969 448.004,179.236C447.215,178.504 446.82,177.464 446.82,176.117L446.82,174.94L459.334,174.94L459.334,177.127C459.334,177.801 459.51,178.234 459.862,178.426C460.214,178.618 460.838,178.715 461.734,178.715C462.63,178.715 463.297,178.593 463.734,178.348C464.172,178.104 464.39,177.741 464.39,177.26C464.39,176.202 463.974,175.51 463.142,175.184C462.289,174.859 460.187,174.315 456.837,173.552C453.488,172.783 451.269,172.224 450.181,171.876C449.092,171.528 448.191,171.047 447.476,170.433C446.761,169.818 446.404,169.034 446.404,168.079C446.404,166.702 446.911,165.696 447.924,165.059C448.938,164.423 450.575,163.925 452.837,163.566C455.098,163.207 457.83,163.028 461.03,163.028C464.529,163.028 467.511,163.224 469.975,163.616C472.439,164.008 474.072,164.502 474.872,165.098C475.672,165.694 476.072,166.706 476.072,168.135L476.072,168.845Z" style="fill:rgb(255,213,114);fill-rule:nonzero;"/>
            <path d="M512.333,170.022L498.859,170.022L498.859,168.39C498.859,167.361 498.731,166.717 498.475,166.458C498.219,166.199 497.611,166.07 496.651,166.07C495.819,166.07 495.253,166.181 494.954,166.403C494.656,166.625 494.506,167.195 494.506,168.112L494.506,176.739C494.506,177.545 494.656,178.076 494.954,178.332C495.253,178.587 495.851,178.715 496.747,178.715C497.728,178.715 498.395,178.57 498.747,178.282C499.099,177.993 499.275,177.431 499.275,176.594L499.275,174.463L496.555,174.463L496.555,171.732L512.333,171.732L512.333,181.379L503.852,181.379L502.603,180.091C501.686,180.646 500.529,181.063 499.131,181.34C497.734,181.618 496.085,181.757 494.186,181.757C491.925,181.757 489.807,181.566 487.834,181.185C485.86,180.804 484.361,180.332 483.337,179.769C482.313,179.207 481.673,178.617 481.417,177.999C481.161,177.381 481.033,176.454 481.033,175.218L481.033,169.878C481.033,168.161 481.299,166.913 481.833,166.136C482.366,165.359 483.897,164.647 486.425,163.999C488.954,163.352 492.223,163.028 496.235,163.028C500.182,163.028 503.457,163.309 506.06,163.872C508.663,164.434 510.359,165.102 511.149,165.875C511.938,166.649 512.333,167.772 512.333,169.245L512.333,170.022Z" style="fill:rgb(255,213,114);fill-rule:nonzero;"/>
            <path d="M517.549,163.405L540.016,163.405L540.016,167.002L531.023,167.002L531.023,170.411L539.44,170.411L539.44,173.83L531.023,173.83L531.023,177.782L540.913,177.782L540.913,181.379L517.549,181.379L517.549,163.405Z" style="fill:rgb(255,213,114);fill-rule:nonzero;"/>
            <path d="M576.885,163.405L569.172,171.521L577.621,181.379L563.7,181.379L558.259,173.674L558.259,181.379L544.785,181.379L544.785,163.405L558.259,163.405L558.259,170.388L564.244,163.405L576.885,163.405Z" style="fill:rgb(255,213,114);fill-rule:nonzero;"/>
            <path d="M609.562,173.93C609.562,175.736 609.439,177.014 609.194,177.765C608.948,178.517 608.18,179.203 606.889,179.825C605.599,180.447 603.854,180.924 601.657,181.257C599.459,181.59 596.899,181.757 593.976,181.757C591.202,181.757 588.711,181.599 586.503,181.285C584.294,180.97 582.518,180.498 581.174,179.869C579.83,179.24 579.03,178.556 578.774,177.815C578.518,177.075 578.39,175.78 578.39,173.93L578.39,170.855C578.39,169.049 578.512,167.77 578.758,167.019C579.003,166.268 579.771,165.581 581.062,164.96C582.353,164.338 584.097,163.86 586.295,163.527C588.492,163.194 591.053,163.028 593.976,163.028C596.749,163.028 599.24,163.185 601.449,163.5C603.657,163.814 605.433,164.286 606.777,164.915C608.122,165.544 608.922,166.229 609.178,166.969C609.434,167.709 609.562,169.004 609.562,170.855L609.562,173.93ZM596.088,168.024C596.088,167.187 595.955,166.653 595.688,166.419C595.421,166.186 594.872,166.07 594.04,166.07C593.336,166.07 592.797,166.164 592.423,166.353C592.05,166.542 591.863,167.098 591.863,168.024L591.863,176.417C591.863,177.46 591.986,178.104 592.231,178.348C592.477,178.593 593.048,178.715 593.944,178.715C594.861,178.715 595.448,178.574 595.704,178.293C595.96,178.012 596.088,177.342 596.088,176.283L596.088,168.024Z" style="fill:rgb(255,213,114);fill-rule:nonzero;"/>
        </g>
        <g transform="matrix(1,0,0,1,84.583928,119.714276)">
            <path d="M44.145,71.777L183.818,71.777L204.287,59.979C207.562,50.205 215.613,42.761 220.847,39.592L222.198,34.998L224.306,37.863L226.791,34.728L227.008,40.938C231.317,44.183 234.208,50.439 235.006,53.157L232.628,56.561C229.033,53.965 224.805,51.661 220.739,49.698C217.42,54.873 215.776,58.704 215.551,65.208C220.748,63.245 228.068,62.821 231.007,63.155C232.234,73.412 226.847,82.694 221.063,85.475C219.397,82.505 218.793,77.854 218.793,77.854L221.982,76.666L222.63,78.665C222.63,78.665 226.688,76.62 226.359,67.208L215.01,74.99L44.145,74.99L44.145,71.777Z" style="fill:rgb(255,213,114);"/>
            <path d="M199.782,52.834C200.069,51.194 200.693,49.482 201.638,47.812L206.555,51.221C205.823,52.375 205.132,53.566 204.472,54.792L199.782,52.834ZM204.007,55.672C203.516,56.616 203.041,57.579 202.577,58.561L199.873,57.144C199.669,56.342 199.58,55.481 199.603,54.585L204.007,55.672ZM202.643,46.225C203.708,44.711 205.045,43.264 206.638,41.976L210.769,45.606C209.619,46.89 208.568,48.242 207.591,49.656L202.643,46.225ZM208.166,40.845C209.409,40.003 210.779,39.256 212.273,38.636L215.024,41.556C213.962,42.413 212.971,43.312 212.042,44.252L208.166,40.845ZM216.345,40.54L214.248,37.914C215.28,37.586 216.362,37.318 217.493,37.116L218.314,39.192C217.633,39.627 216.977,40.076 216.345,40.54Z" style="fill:rgb(255,213,114);"/>
        </g>
        <g transform="matrix(1.560572,0,0,1.462155,109.938013,-88.390692)">
            <path d="M224.16,191.466L224.16,193.611L133.341,193.611L133.826,191.466L224.16,191.466Z" style="fill:rgb(255,213,114);"/>
        </g>
    </g>
</svg>
